<svg xmlns="http://www.w3.org/2000/svg" viewBox="0 0 240 310"><rect width="100%" height="100%" fill="white"/><path d="M153,269L159,267L163,272ZM152,268L156,274L165,272L159,266ZM53,267L56,271L62,269L59,265ZM26,266L36,270L30,264ZM210,263L208,269L212,270ZM91,263L87,271L80,268L82,263ZM93,261L98,261L99,271L93,270ZM202,262L179,267L172,262L193,258ZM100,259L107,258L108,270L101,268ZM114,256L120,253L132,263L128,266ZM60,254L59,259L64,261ZM37,253L38,263L33,258ZM123,253L131,250L134,256L130,259ZM81,250L88,251L85,262ZM77,250L79,257L74,256ZM56,250L50,260L49,252ZM209,249L205,255L210,259L213,252ZM200,248L190,252L197,253ZM142,247L142,254L133,250ZM145,246L166,260L151,262ZM67,245L76,249L72,259ZM95,246L102,244L103,248ZM44,244L44,255L39,251ZM127,249L90,259L91,250L104,250L106,243L108,250ZM126,245L109,247L119,241ZM167,240L170,244L176,242ZM50,239L61,243L51,243ZM142,239L151,238L145,244ZM126,236L133,247L130,249ZM131,233L136,247L128,235ZM40,233L47,237L43,243ZM88,233L81,239L87,240ZM49,234L53,230L60,232L62,239ZM33,230L41,243L33,255ZM219,229L218,237L204,236ZM172,228L180,227L186,233ZM157,228L164,224L172,230ZM59,223L60,231L55,229ZM217,226L207,230L211,222ZM196,221L207,222L201,234L194,229ZM187,222L192,221L193,226ZM166,224L172,220L178,225ZM41,220L48,222L47,233L35,227ZM71,218L75,219L73,224ZM46,214L47,220L43,218ZM219,243L219,275L214,279L125,279L118,275L115,279L30,279L24,275L25,258L41,266L42,255L48,265L64,246L68,270L73,271L73,260L87,274L91,267L94,273L110,272L111,267L115,270L120,267L118,260L146,274L148,268L139,257L144,254L150,264L188,266L190,274L196,273L193,265L204,263L200,256L168,260L163,256L183,251L156,251L147,243L153,237L159,241L164,238L160,234L142,235L143,224L110,224L106,242L100,241L105,238L101,229L93,232L99,243L80,246L76,230L134,216L141,221L165,212L171,218L150,230ZM85,211L87,217L83,220ZM139,217L145,209L153,211ZM138,210L135,216L128,215ZM124,209L125,216L115,219ZM66,210L74,214L69,216ZM217,208L217,218L213,219ZM204,208L202,215L197,210ZM87,215L88,208L100,212ZM213,207L209,218L205,218L206,209ZM79,206L84,208L81,216ZM70,205L77,208L78,222ZM190,205L175,213L176,208ZM56,201L61,202L64,216ZM173,205L175,200L181,202ZM63,201L69,200L69,206ZM49,200L70,228L75,246L63,240L61,221L49,231L48,212L33,225L34,217ZM41,198L42,207L37,212ZM183,202L188,196L190,200ZM219,195L214,206L195,208L204,220L186,221L198,236L189,234L174,220L202,199ZM191,199L193,194L198,197ZM46,193L49,199L44,204ZM94,195L101,192L102,198L95,199ZM148,200L153,191L164,193L161,201ZM126,199L131,191L140,192L135,200ZM119,191L127,192L124,200L115,199ZM107,191L115,192L112,200L104,198ZM143,190L150,192L146,201L138,199ZM196,192L179,199L183,192ZM180,190L182,185L190,188ZM132,189L136,184L141,189ZM145,188L150,183L154,189ZM130,188L119,188L126,183ZM116,187L107,188L112,183ZM41,183L45,191L39,198ZM184,184L191,182L193,186ZM114,183L125,183L118,188ZM104,187L105,182L111,183ZM70,191L77,192L80,182L86,184L89,199ZM151,182L158,183L154,187ZM137,183L149,182L143,188ZM128,184L135,182L131,188ZM173,180L165,199L165,191L157,191L156,187L161,180ZM207,181L213,188L214,182ZM86,178L88,185L82,181ZM70,175L78,179L76,190L68,187ZM81,171L86,177L80,180ZM185,169L191,181L183,183ZM97,168L101,171L97,177ZM32,168L31,177L25,171ZM184,168L172,207L156,213L145,208L138,217L140,206L127,215L124,207L99,223L72,227L108,211L94,201L165,204ZM165,168L172,167L173,175L168,175ZM109,168L117,174L111,175ZM139,166L143,168L140,172L135,170ZM120,168L125,166L137,173L127,174ZM53,166L60,171L58,180ZM167,177L104,179L107,172L109,177L155,175L162,165ZM105,165L104,177L99,180ZM128,166L137,165L134,169ZM70,164L79,170L77,176L69,173ZM139,164L153,166L154,171ZM87,163L87,175L81,169ZM97,165L100,162L104,166L99,169ZM80,159L85,162L81,167ZM156,159L162,164L157,166ZM166,155L173,157L172,166L165,163ZM103,154L104,164L100,159ZM86,154L87,162L82,158ZM54,154L59,164L54,162ZM161,153L162,163L157,157ZM70,153L78,157L77,166L69,162ZM149,153L148,160L138,160ZM139,156L119,161L114,153L127,157L138,151ZM102,146L97,163L95,154ZM183,146L190,145L193,154ZM156,145L162,152L158,155ZM81,145L86,152L82,156ZM117,144L124,143L126,151L118,152ZM165,142L174,146L173,154L165,151ZM69,143L77,144L79,152L71,152ZM116,141L113,154L119,164L113,166L108,146ZM85,141L87,151L81,144ZM50,141L60,150L53,151ZM162,139L162,151L157,144ZM128,141L116,139L104,144L105,138L119,135ZM104,136L94,142L95,136ZM155,135L161,139L156,142ZM146,133L148,141L141,150ZM81,133L86,139L83,142ZM184,132L189,134L189,141ZM139,132L143,136L140,141ZM166,130L174,134L173,143L165,138ZM130,130L135,150L126,155L130,141L124,132ZM90,130L98,133L93,135L94,181L104,186L92,195ZM84,130L86,137L81,132ZM71,130L78,133L77,141L70,139ZM162,129L163,137L157,133ZM219,129L206,137L203,133ZM142,127L144,134L139,131ZM106,131L109,127L115,130ZM100,128L102,124L108,126ZM89,125L104,132L90,130ZM106,123L116,122L123,128L118,130ZM92,124L101,123L99,127ZM156,121L162,127L156,133ZM127,121L134,123L134,134ZM70,121L75,121L78,128L71,128ZM211,120L218,125L211,128ZM166,119L174,123L173,132L164,126ZM146,118L146,128L142,125ZM185,116L190,129L183,124ZM163,116L162,125L157,119ZM139,117L136,124L134,119L87,121L84,130L77,119ZM145,115L138,130L139,119ZM60,113L58,127L52,115ZM154,112L161,115L155,118ZM138,108L140,112L134,114ZM129,112L118,113L125,108ZM112,108L115,113L109,114ZM88,108L91,115L85,114ZM49,109L59,112L52,114ZM127,109L136,108L130,113ZM106,113L94,114L101,107ZM30,108L29,114L34,116L36,111ZM167,106L175,109L173,121L165,117ZM125,107L117,113L113,108ZM102,107L111,107L107,112ZM98,106L93,113L90,107ZM63,105L61,111L53,107ZM151,102L153,166L145,163L150,161L149,115L139,110ZM37,100L53,159L48,166L57,192L52,198L39,177L29,224L31,240L25,247L24,224L28,219L24,210L29,209L24,202L30,200L30,195L24,195L24,175L32,179L32,190L34,169L45,170L45,136L28,134L28,125L32,132L34,127L39,129L40,123L34,120L27,126L24,112L26,104ZM42,99L59,135L68,121L66,192L101,210L62,198L57,184L61,171L53,165L63,167L55,154L62,149L46,125ZM204,97L202,113L198,105ZM78,97L79,105L88,106L83,115L70,116ZM154,97L174,105L166,104L162,114L154,109ZM149,98L147,103L140,103L143,96ZM129,98L138,96L138,103L129,105ZM116,104L119,96L128,97L124,105ZM45,98L52,97L50,101ZM116,97L111,105L103,104L108,95ZM104,95L100,105L93,103L97,95ZM79,102L82,95L95,96L90,104ZM64,97L62,103L47,104ZM59,93L55,100L53,96ZM199,92L197,103L194,97ZM62,92L70,91L68,96ZM177,88L179,96L173,94ZM143,86L181,98L187,114L183,115L182,125L190,131L180,129L188,142L181,147L196,168L201,197L185,161L175,175L177,104ZM206,84L202,98L201,89ZM68,83L67,88L52,91ZM39,83L46,86L39,87ZM179,80L187,95L182,94ZM169,82L174,80L176,85ZM115,81L105,86L108,80ZM162,79L164,89L159,88ZM156,81L155,88L142,84ZM103,79L97,87L90,85ZM128,77L119,87L118,79ZM30,77L26,87L26,78ZM160,76L158,85L156,78ZM36,76L37,87L31,88ZM164,74L173,91L167,89ZM169,73L174,77L170,78ZM66,71L77,72L70,75ZM171,69L135,85L148,94L78,92L59,128L72,88L87,83L98,88L105,79L103,90L116,81L121,88L143,73ZM183,65L188,67L184,73ZM72,66L86,68L79,72ZM36,66L32,74L26,69ZM195,64L208,70L202,76L196,75ZM57,63L71,68L63,69ZM43,61L49,73L37,75ZM70,76L41,97L24,101L30,89L48,87L39,75L57,75L45,60L53,61ZM24,67L25,59L39,60ZM181,57L194,62L190,66L183,64ZM161,56L155,56L154,62L160,62ZM200,53L203,63L196,59ZM98,52L101,59L93,59ZM67,53L70,57L76,55ZM217,50L215,76L219,85L214,86L219,94L214,94L213,101L219,101L217,123L211,117L214,107L210,106L209,127L198,126L198,160L215,162L215,171L211,164L203,168L203,173L208,176L217,171L219,190L205,195L190,137L195,130L186,104L192,98L204,119L214,72L212,56ZM168,50L180,56L183,75L194,65L195,84L210,71L194,96L172,66ZM165,51L167,66L133,72L136,54L142,55L138,59L145,67L150,62L142,53ZM102,50L110,62L107,66ZM107,49L114,59L112,63ZM140,48L148,50L141,52ZM134,49L123,55L117,51ZM181,50L194,47L192,51ZM151,49L154,45L162,48ZM200,41L204,45L199,51ZM98,44L106,41L110,46L101,49ZM210,40L210,66L202,53ZM168,38L166,46L163,40ZM34,38L35,45L31,42ZM171,37L176,50L167,46ZM108,40L113,37L120,43L112,46ZM152,37L152,46L139,46L137,53L135,46L118,46ZM32,37L30,44L36,46L38,41ZM193,35L194,44L187,45ZM157,34L162,46L155,45ZM77,36L92,34L98,49ZM205,33L210,37L206,43ZM178,35L183,42L184,37ZM111,32L114,29L129,40L123,43ZM72,34L49,38L41,34L63,29ZM127,28L135,39L130,39ZM153,32L156,25L163,28L161,33ZM143,26L149,25L152,33L146,36ZM135,25L142,27L143,37L137,37ZM181,27L184,31L190,29L188,25ZM98,24L107,32L104,36ZM32,25L30,30L35,32ZM80,24L90,27L84,29ZM78,24L85,30L91,28L88,22ZM24,53L24,22L29,18L218,21L217,29L207,25L211,31L218,31L217,38L202,29L202,41L195,37L195,31L179,50L175,26L170,25L170,35L156,22L152,28L150,23L125,27L125,35L96,22L95,28L104,39L99,42L93,32L74,34L66,28L56,29L51,21L47,25L54,29L39,33L42,39L75,36L80,40L60,45L86,44L96,53L91,58L79,58L84,62L99,60L100,72L134,73L112,79L102,75L78,84L72,78L92,65L47,56L28,57ZM15,11L15,287L227,287L228,12Z" fill="black" fill-rule="evenodd"/></svg>